HIERARCHY
ROOT Hips
{
	OFFSET 0.00000 0.00000 0.00000
	CHANNELS 6 Xposition Yposition Zposition Yrotation Zrotation Xrotation 
	JOINT Lumbar
	{
		OFFSET 0 0 0
		CHANNELS 3 Zrotation Xrotation Yrotation
		JOINT Neck
		{
			OFFSET 0.00 0.2701 0.00
			CHANNELS 3 Zrotation Xrotation Yrotation
			End Site
			{
				OFFSET 0.00 0.1379 0.00
			}
		}
		JOINT RightShoulder
		{
			OFFSET 0.0119 0.2289 0.1181
			CHANNELS 3 Zrotation Xrotation Yrotation
			JOINT RightElbow
			{
				OFFSET 0.00 -0.1475 0.00
				CHANNELS 2 Zrotation Yrotation
				JOINT RightWrist
				{
					OFFSET 0.00 -0.1605 0.00
					CHANNELS 2 Zrotation Xrotation
					End Site
					{
						OFFSET 0.0040 -0.1068 0.0006
					}
				}
			}
		}
		JOINT LeftShoulder
		{
			OFFSET 0.0119 0.2289 -0.1181
			CHANNELS 3 Zrotation Xrotation Yrotation
			JOINT LeftElbow
			{
				OFFSET 0.00 -0.1475 0.00
				CHANNELS 2 Zrotation Yrotation
				JOINT LeftWrist
				{
					OFFSET 0.00 -0.1605 0.00
					CHANNELS 2 Zrotation Xrotation
					End Site
					{
						OFFSET 0.0040 -0.1068 -0.0006
					}
				}
			}
		}
	}
	JOINT RightHip
	{
		OFFSET 0.0316 -0.0424 0.0458
		CHANNELS 3 Zrotation Xrotation Yrotation
		JOINT RightKnee
		{
			OFFSET 0.00 -0.2438 0.00
			CHANNELS 1 Zrotation
			JOINT RightAnkle
			{
				OFFSET 0.00 -0.2449 0.00
				CHANNELS 3 Zrotation Xrotation Yrotation
				End Site
				{
					OFFSET 0.1237 -0.0542 0.0051
				}
			}
		}
	}
	JOINT LeftHip
	{
		OFFSET 0.0316 -0.0424 -0.0458
		CHANNELS 3 Zrotation Xrotation Yrotation
		JOINT LeftKnee
		{
			OFFSET 0.00 -0.2438 0.00
			CHANNELS 1 Zrotation
			JOINT LeftAnkle
			{
				OFFSET 0.00 -0.2449 0.00
				CHANNELS 3 Zrotation Xrotation Yrotation
				End Site
				{
					OFFSET 0.1237 -0.0542 -0.0051
				}
			}
		}
	}
}
MOTION
Frames: 17
Frame Time: 0.02
-0 0.57926 -0 183.25078 0 -3.40419 2.27602 2.8261 0.06938 -26.35564 3.34779 -0.86867 -15.85506 -64.20429 -77.29527 24.71084 78.21643 -19.74233 -2.99283 -24.44449 73.26591 82.12307 24.07841 -69.07138 -29.70689 2.04742 -2.63189 3.39629 5.64552 -7.89911 -1.38509 -3.96747 -7.2479 -0.9848 4.54187 -1.86016 -8.94404 6.64337 2.83071 1.19618
3e-05 0.57927 2e-05 183.24431 0 -3.40462 2.26169 2.83278 0.07873 -26.36812 3.33628 -0.86243 -15.77828 -64.19631 -77.22084 24.71422 78.14174 -19.72838 -3.02181 -24.39442 73.2879 81.97287 24.04976 -69.03515 -29.80052 2.05796 -2.63195 3.39367 5.64035 -7.89129 -1.38896 -3.9555 -7.2379 -0.98878 4.54048 -1.85719 -8.93313 6.64049 2.83245 1.19966
5e-05 0.57927 4e-05 183.23799 0 -3.40504 2.24737 2.83944 0.08798 -26.38047 3.32489 -0.85624 -15.7017 -64.18855 -77.14668 24.71746 78.06826 -19.71437 -3.05061 -24.34414 73.3095 81.82331 24.02141 -68.99957 -29.89336 2.06845 -2.63201 3.39106 5.63517 -7.88355 -1.39276 -3.94364 -7.22804 -0.99269 4.5391 -1.85419 -8.92233 6.63764 2.83415 1.203
8e-05 0.57927 6e-05 183.23207 0 -3.40542 2.23308 2.84611 0.09695 -26.39244 3.31372 -0.8502 -15.62505 -64.18147 -77.07287 24.72011 77.99956 -19.6999 -3.07875 -24.29282 73.33013 81.67464 23.99345 -68.9663 -29.98442 2.07898 -2.63204 3.38845 5.63002 -7.876 -1.39632 -3.93206 -7.21868 -0.99645 4.53769 -1.85082 -8.91166 6.63485 2.83568 1.20578
0.00011 0.57927 7e-05 183.22388 0 -3.40598 2.21875 2.85279 0.10746 -26.40641 3.30121 -0.84335 -15.54864 -64.17065 -76.9972 24.72583 77.90635 -19.68777 -3.11014 -24.24734 73.35632 81.52099 23.96276 -68.92093 -30.08549 2.08941 -2.63219 3.38583 5.62484 -7.86738 -1.40113 -3.91897 -7.20669 -1.00111 4.53639 -1.84914 -8.90007 6.63172 2.83813 1.21147
0.00014 0.57928 9e-05 183.22063 0 -3.40616 2.20446 2.85938 0.11465 -26.41617 3.29165 -0.83822 -15.47188 -64.16781 -76.92555 24.72507 77.86451 -19.67079 -3.13483 -24.18931 73.37047 81.37818 23.93834 -68.90108 -30.1649 2.09997 -2.63209 3.38324 5.61967 -7.86105 -1.40332 -3.90909 -7.20028 -1.00378 4.53486 -1.8441 -8.89057 6.62932 2.83861 1.21104
0.00016 0.57927 0.00012 183.2304 0 -3.40532 2.19039 2.86634 0.11308 -26.41398 3.28945 -0.83782 -15.39129 -64.18733 -76.86344 24.70538 77.97397 -19.63866 -3.13908 -24.09582 73.35257 81.26091 23.92723 -68.95464 -30.18798 2.11203 -2.63124 3.38054 5.615 -7.86102 -1.39786 -3.90806 -7.20974 -1.00154 4.53259 -1.82753 -8.88591 6.62883 2.83346 1.19263
0.00019 0.57927 0.00015 183.24526 0 -3.40409 2.17632 2.87308 0.10811 -26.40759 3.29035 -0.83912 -15.31078 -64.21486 -76.8056 24.67928 78.13401 -19.6019 -3.13687 -23.98976 73.32233 81.15513 23.92315 -69.03347 -30.18872 2.12406 -2.63016 3.37789 5.61026 -7.86332 -1.38983 -3.91026 -7.22473 -0.99718 4.53009 -1.80794 -8.88353 6.62909 2.82637 1.16825
0.00022 0.57927 0.00018 183.25827 0 -3.40302 2.16217 2.87951 0.10441 -26.40336 3.29039 -0.83964 -15.23198 -64.2386 -76.74682 24.65679 78.26452 -19.56838 -3.13895 -23.88979 73.29687 81.04692 23.91852 -69.09891 -30.19722 2.13536 -2.62923 3.37536 5.60527 -7.86458 -1.38328 -3.91098 -7.23694 -0.99341 4.52777 -1.79123 -8.88071 6.62907 2.82028 1.14728
0.00024 0.57927 0.00022 183.2695 0 -3.40205 2.14841 2.88768 0.1018 -26.39813 3.28822 -0.84025 -15.14583 -64.26307 -76.68394 24.63149 78.42133 -19.53013 -3.13557 -23.78801 73.27469 80.92738 23.90291 -69.17243 -30.21517 2.14968 -2.62811 3.37228 5.60148 -7.86575 -1.37547 -3.91175 -7.25041 -0.99121 4.52518 -1.7683 -8.87536 6.62879 2.81364 1.12329
0.00027 0.57926 0.00024 183.28543 0 -3.40076 2.13379 2.89215 0.09623 -26.39392 3.29125 -0.84103 -15.07499 -64.28781 -76.6305 24.61037 78.537 -19.50055 -3.1417 -23.68729 73.243 80.8336 23.91161 -69.23508 -30.20893 2.15786 -2.6273 3.37028 5.59518 -7.86768 -1.3696 -3.91316 -7.26238 -0.98526 4.52305 -1.75743 -8.87585 6.62924 2.80773 1.10426
0.0003 0.57926 0.00022 183.31491 0 -3.39891 2.11693 2.88666 0.08223 -26.39394 3.30917 -0.84239 -15.0464 -64.31233 -76.60316 24.6038 78.51224 -19.4968 -3.17845 -23.59008 73.18586 80.81311 23.98783 -69.262 -30.13447 2.1476 -2.62776 3.37185 5.58188 -7.87094 -1.37052 -3.91581 -7.27049 -0.96919 4.52269 -1.78203 -8.8917 6.63126 2.80384 1.09973
0.00033 0.57926 0.0002 183.3486 0 -3.39673 2.09916 2.87743 0.06554 -26.39504 3.33199 -0.8438 -15.03322 -64.33672 -76.585 24.60145 78.44661 -19.50181 -3.22448 -23.49482 73.11989 80.81725 24.08804 -69.27702 -30.03763 2.1314 -2.6285 3.37439 5.56611 -7.8749 -1.37338 -3.91895 -7.27665 -0.94948 4.52273 -1.81856 -8.91335 6.63401 2.80081 1.10047
0.00036 0.57926 0.00017 183.37915 0 -3.39454 2.08171 2.86972 0.05083 -26.39536 3.35169 -0.84483 -15.01297 -64.36045 -76.56193 24.59617 78.40969 -19.50226 -3.26446 -23.40036 73.05959 80.8068 24.17569 -69.29715 -29.95569 2.11891 -2.6289 3.3761 5.55148 -7.87867 -1.37481 -3.9217 -7.28255 -0.93159 4.5223 -1.84871 -8.93251 6.6366 2.7977 1.09927
0.00039 0.57926 0.00015 183.41503 0 -3.39297 2.06467 2.86266 0.03292 -26.39676 3.37518 -0.84735 -14.99296 -64.38729 -76.54206 24.59475 78.33346 -19.50491 -3.31198 -23.29846 72.99233 80.81093 24.26996 -69.31939 -29.8534 2.10226 -2.63015 3.37947 5.53665 -7.88205 -1.37837 -3.92526 -7.29322 -0.91285 4.52305 -1.8829 -8.95129 6.63856 2.79331 1.09611
0.00042 0.57926 0.00013 183.44081 0 -3.3901 2.04653 2.85347 0.02094 -26.39619 3.39201 -0.84687 -14.97616 -64.4078 -76.51772 24.58664 78.32656 -19.50526 -3.34604 -23.2125 72.93703 80.79062 24.35681 -69.33416 -29.78795 2.09273 -2.62976 3.37961 5.5218 -7.88629 -1.37811 -3.92721 -7.29371 -0.89514 4.52144 -1.9114 -8.97204 6.64193 2.79172 1.09817
0.00044 0.57925 0.00011 183.43702 0 -3.38328 2.02576 2.83824 0.02727 -26.39028 3.3885 -0.83724 -14.96403 -64.40843 -76.47834 24.55669 78.53992 -19.4957 -3.34121 -23.17179 72.92198 80.69492 24.41086 -69.33057 -29.83442 2.10552 -2.62408 3.37057 5.50637 -7.89365 -1.36568 -3.92451 -7.26405 -0.88049 4.51326 -1.92248 -8.99822 6.64953 2.79829 1.11505
